<?xml version="1.0" standalone="no"?>
<!DOCTYPE svg PUBLIC "-//W3C//DTD SVG 20010904//EN"
 "http://www.w3.org/TR/2001/REC-SVG-20010904/DTD/svg10.dtd">
<svg version="1.0" xmlns="http://www.w3.org/2000/svg"
 width="150.000000pt" height="150.000000pt" viewBox="0 0 150.000000 150.000000"
 preserveAspectRatio="xMidYMid meet">

<g transform="translate(0.000000,150.000000) scale(0.100000,-0.100000)"
fill="#000000" stroke="none">
<path d="M574 969 c-32 -6 -60 -19 -74 -34 -20 -22 -21 -27 -10 -54 17 -42 39
-59 33 -27 -7 32 31 71 83 85 52 14 192 13 281 -2 90 -16 86 -4 -5 17 -89 20
-244 27 -308 15z"/>
<path d="M1085 912 c11 -21 -5 -51 -33 -66 -55 -28 -147 -28 -307 -1 -26 4
-25 3 7 -9 57 -22 192 -39 259 -33 99 9 133 47 88 98 -11 13 -18 18 -14 11z"/>
<path d="M595 858 c-8 -25 -25 -158 -25 -196 0 -43 20 -68 59 -74 13 -1 26 3
28 10 3 6 -2 12 -10 12 -35 0 -41 27 -28 123 7 51 15 102 18 115 4 17 1 22
-16 22 -12 0 -23 -6 -26 -12z"/>
<path d="M952 768 c-41 -11 -62 -49 -41 -74 8 -10 29 -23 47 -31 55 -23 31
-69 -33 -61 -22 2 -34 0 -32 -6 6 -18 76 -19 102 -2 50 33 39 80 -26 106 -16
7 -29 19 -29 27 0 19 40 32 69 21 25 -9 37 -5 27 10 -9 15 -48 19 -84 10z"/>
<path d="M1112 768 c-41 -11 -62 -49 -41 -74 8 -10 29 -23 47 -31 55 -23 31
-69 -33 -61 -22 2 -34 0 -32 -6 6 -18 76 -19 102 -2 50 33 39 80 -26 106 -33
14 -38 35 -10 50 14 7 28 7 47 0 28 -11 40 -8 30 8 -9 15 -48 19 -84 10z"/>
<path d="M282 693 c-16 -104 -16 -115 5 -111 13 2 21 21 30 73 17 100 16 115
-5 115 -15 0 -21 -13 -30 -77z"/>
<path d="M418 754 c-15 -8 -35 -28 -43 -44 -45 -87 18 -152 123 -124 34 9 26
21 -11 16 -70 -8 -114 71 -67 118 24 24 78 27 86 5 5 -12 9 -13 20 -4 12 10
12 15 -2 30 -20 23 -68 24 -106 3z"/>
<path d="M709 741 c-23 -23 -29 -38 -29 -71 0 -23 5 -50 10 -60 14 -27 76 -37
99 -16 22 20 32 20 24 0 -4 -12 0 -15 18 -12 26 3 36 30 38 106 1 58 -24 82
-85 82 -37 0 -51 -5 -75 -29z m111 -6 c16 -20 7 -81 -17 -107 -11 -13 -27 -18
-47 -16 -26 2 -32 8 -34 32 -7 60 20 106 62 106 13 0 29 -7 36 -15z"/>
</g>
</svg>
